<?xml version="1.0" encoding="UTF-8"?>
<svg xmlns="http://www.w3.org/2000/svg" xmlns:xlink="http://www.w3.org/1999/xlink" width="15px" height="16px" viewBox="0 0 15 16" version="1.1">
<g id="surface1">
<path style=" stroke:none;fill-rule:nonzero;fill:rgb(82.745098%,2.745098%,16.862745%);fill-opacity:1;" d="M 10.21875 3.503906 L 10.21875 2.71875 C 10.21875 1.929688 9.960938 1.28125 9.449219 0.769531 C 8.9375 0.257812 8.285156 0 7.5 0 C 6.648438 0 5.984375 0.261719 5.503906 0.785156 C 5.023438 1.308594 4.78125 2.003906 4.78125 2.878906 L 4.78125 3.121094 C 4.78125 3.164062 4.789062 3.199219 4.796875 3.230469 L 4.8125 3.503906 C 4.007812 2.9375 3.28125 2.65625 2.636719 2.65625 C 2.132812 2.65625 1.652344 2.820312 1.195312 3.152344 C 0.757812 3.460938 0.4375 3.867188 0.230469 4.367188 C 0.078125 4.71875 0 5.070312 0 5.425781 C 0 6.5 0.632812 7.324219 1.898438 7.886719 L 2.144531 8 C 0.714844 8.640625 0 9.503906 0 10.59375 C 0 11.328125 0.261719 11.972656 0.785156 12.527344 C 1.308594 13.082031 1.933594 13.359375 2.652344 13.359375 C 3.308594 13.359375 3.957031 13.128906 4.601562 12.671875 L 4.8125 12.511719 C 4.792969 12.726562 4.78125 12.980469 4.78125 13.28125 C 4.78125 14.078125 5.039062 14.734375 5.550781 15.238281 C 6.0625 15.746094 6.714844 16 7.5 16 C 8.363281 16 9.03125 15.734375 9.507812 15.207031 C 9.980469 14.679688 10.21875 13.988281 10.21875 13.136719 L 10.21875 12.511719 C 11.027344 13.078125 11.746094 13.359375 12.378906 13.359375 C 13.089844 13.359375 13.703125 13.078125 14.222656 12.519531 C 14.742188 11.960938 15 11.316406 15 10.59375 C 15 9.503906 14.367188 8.675781 13.101562 8.113281 L 12.855469 8 C 14.285156 7.359375 15 6.5 15 5.425781 C 15 4.730469 14.742188 4.097656 14.230469 3.519531 C 13.71875 2.945312 13.097656 2.65625 12.371094 2.65625 C 11.644531 2.65625 11.003906 2.878906 10.449219 3.328125 Z M 8.84375 6.207031 C 10.109375 4.40625 11.28125 3.503906 12.363281 3.503906 C 12.8125 3.503906 13.21875 3.703125 13.582031 4.097656 C 13.949219 4.492188 14.132812 4.933594 14.132812 5.425781 C 14.132812 6.746094 12.667969 7.53125 9.742188 7.777344 L 9.742188 8.238281 C 11.195312 8.355469 12.289062 8.613281 13.027344 9.007812 C 13.761719 9.402344 14.132812 9.929688 14.132812 10.59375 C 14.132812 11.070312 13.953125 11.511719 13.601562 11.910156 C 13.246094 12.3125 12.832031 12.511719 12.363281 12.511719 C 11.261719 12.511719 10.085938 11.605469 8.84375 9.792969 L 8.417969 10.03125 C 9.039062 11.269531 9.351562 12.316406 9.351562 13.167969 C 9.351562 14.492188 8.734375 15.152344 7.5 15.152344 C 6.910156 15.152344 6.453125 14.976562 6.125 14.625 C 5.808594 14.25 5.648438 13.78125 5.648438 13.214844 C 5.648438 12.363281 5.960938 11.300781 6.582031 10.03125 L 6.15625 9.792969 C 4.914062 11.605469 3.738281 12.511719 2.636719 12.511719 C 2.1875 12.511719 1.78125 12.324219 1.417969 11.945312 C 1.050781 11.566406 0.867188 11.113281 0.867188 10.59375 C 0.867188 9.269531 2.324219 8.484375 5.238281 8.238281 L 5.238281 7.777344 C 2.324219 7.542969 0.867188 6.757812 0.867188 5.425781 C 0.867188 4.953125 1.042969 4.515625 1.390625 4.113281 C 1.742188 3.707031 2.15625 3.503906 2.636719 3.503906 C 3.71875 3.503906 4.890625 4.40625 6.15625 6.207031 L 6.582031 5.984375 C 5.960938 4.734375 5.648438 3.667969 5.648438 2.785156 C 5.648438 2.21875 5.808594 1.75 6.125 1.375 C 6.453125 1.023438 6.910156 0.847656 7.5 0.847656 C 8.734375 0.847656 9.351562 1.503906 9.351562 2.816406 C 9.351562 3.679688 9.039062 4.734375 8.417969 5.984375 Z M 8.84375 6.207031 "/>
</g>
</svg>
